<?xml version="1.0" standalone="no"?>
<!DOCTYPE svg PUBLIC "-//W3C//DTD SVG 20010904//EN"
 "http://www.w3.org/TR/2001/REC-SVG-20010904/DTD/svg10.dtd">
<svg version="1.0" xmlns="http://www.w3.org/2000/svg"
 width="150.000000pt" height="150.000000pt" viewBox="0 0 150.000000 150.000000"
 preserveAspectRatio="xMidYMid meet">
<metadata>
Created by potrace 1.13, written by Peter Selinger 2001-2015
</metadata>
<g transform="translate(0.000000,150.000000) scale(0.100000,-0.100000)"
fill="#000000" stroke="none">
<path d="M615 1463 c-109 -24 -269 -100 -310 -147 -5 -7 -20 -19 -32 -27 -80
-55 -197 -253 -227 -382 -20 -86 -20 -243 -1 -326 19 -78 84 -221 122 -266 16
-18 39 -46 53 -64 82 -103 258 -201 399 -222 96 -13 265 -6 333 15 112 35 262
128 308 190 8 11 30 37 50 58 48 52 103 157 131 253 30 104 32 285 5 385 -36
127 -93 225 -191 325 -78 80 -103 98 -185 138 -129 63 -191 77 -325 76 -60 -1
-119 -3 -130 -6z m209 -122 c3 -4 38 -12 77 -15 39 -4 79 -11 88 -16 9 -5 36
-19 61 -30 59 -27 76 -38 123 -80 21 -19 47 -38 58 -42 10 -4 19 -14 19 -22 0
-9 11 -23 25 -32 14 -9 25 -21 25 -26 0 -6 11 -23 25 -40 14 -16 25 -36 25
-44 0 -8 4 -14 10 -14 5 0 13 -18 16 -40 4 -22 11 -43 15 -46 5 -3 9 -18 9
-34 0 -16 5 -32 10 -35 6 -3 10 -42 10 -86 0 -46 -4 -79 -10 -79 -5 0 -10 -16
-10 -35 0 -19 -4 -43 -9 -53 -6 -9 -24 -47 -41 -84 -18 -36 -43 -76 -56 -89
-13 -12 -24 -26 -24 -30 0 -11 -94 -99 -123 -115 -12 -7 -31 -18 -42 -24 -11
-6 -33 -19 -50 -29 -16 -11 -37 -20 -45 -20 -8 -1 -28 -9 -45 -18 -45 -25
-386 -26 -430 0 -16 9 -38 17 -47 17 -9 0 -19 4 -22 9 -3 5 -17 12 -31 15 -30
8 -102 56 -134 90 -14 14 -30 26 -38 26 -7 0 -13 6 -13 13 0 7 -11 21 -25 31
-14 10 -25 23 -25 28 0 6 -11 23 -25 40 -14 16 -25 36 -25 44 0 8 -4 14 -10
14 -5 0 -13 18 -16 40 -4 22 -11 43 -15 46 -5 3 -9 18 -9 34 0 16 -5 32 -10
35 -13 8 -13 195 0 195 6 0 10 13 10 29 0 17 4 32 9 35 5 3 12 23 16 43 4 21
17 52 29 68 12 17 28 43 36 59 17 34 114 124 147 137 13 5 23 13 23 18 0 5 30
24 68 41 37 17 75 36 84 41 10 5 49 12 88 15 39 4 73 11 76 15 7 12 141 12
148 0z"/>
<path d="M650 1293 c-24 -2 -49 -8 -55 -12 -10 -8 -59 -23 -80 -25 -18 -2
-105 -49 -105 -58 0 -4 -7 -8 -15 -8 -19 0 -195 -176 -195 -195 0 -8 -9 -30
-20 -50 -11 -19 -17 -35 -13 -35 4 0 2 -5 -5 -12 -7 -7 -12 -31 -12 -54 0 -24
-4 -46 -10 -49 -5 -3 -10 -30 -10 -60 0 -30 5 -57 10 -60 6 -3 10 -24 10 -47
0 -35 22 -93 41 -108 4 -3 10 -19 13 -37 4 -18 23 -45 42 -62 19 -17 34 -34
34 -39 0 -12 54 -62 67 -62 6 0 16 -7 23 -15 7 -9 33 -25 56 -35 24 -11 46
-24 49 -30 3 -5 17 -10 30 -10 13 0 25 -5 27 -11 2 -6 27 -14 56 -17 29 -2 55
-9 58 -13 7 -12 201 -12 208 0 3 4 29 11 58 13 29 3 54 11 56 17 2 6 8 11 13
11 10 0 74 30 115 53 28 16 154 132 154 142 0 4 11 20 25 37 14 16 25 36 25
44 0 8 5 14 10 14 6 0 10 11 10 24 0 14 5 28 10 31 6 4 8 10 5 15 -3 5 -1 11
5 15 5 3 10 26 10 50 0 24 5 47 10 50 6 3 10 17 10 30 0 13 -4 27 -10 30 -5 3
-10 28 -10 55 0 27 -4 51 -10 55 -5 3 -7 12 -4 19 3 8 1 17 -5 21 -6 3 -11 13
-11 22 0 9 -11 31 -25 49 -14 18 -25 38 -25 44 0 16 -135 147 -160 155 -11 3
-20 11 -20 16 0 5 -6 9 -12 9 -7 0 -40 14 -73 30 -33 16 -71 30 -86 30 -14 0
-29 4 -35 10 -11 11 -167 20 -234 13z m178 -272 c9 -5 34 -17 55 -26 20 -9 37
-22 37 -30 0 -8 3 -15 8 -15 15 0 32 -55 32 -102 0 -27 -6 -58 -12 -71 -17
-29 -67 -75 -90 -83 -17 -5 -14 -11 21 -50 23 -24 41 -50 41 -58 0 -8 10 -34
21 -58 12 -23 27 -56 34 -73 7 -16 18 -42 25 -57 16 -34 6 -48 -33 -48 -50 1
-87 41 -102 110 -4 19 -16 47 -26 62 -11 14 -19 31 -19 37 0 22 -62 81 -86 81
-13 0 -24 5 -24 10 0 6 -18 10 -40 10 l-40 0 0 -141 c0 -158 -4 -169 -64 -169
l-36 0 0 333 c0 184 3 337 7 340 10 11 271 8 291 -2z"/>
<path d="M632 843 l3 -108 70 -3 c68 -3 72 -2 113 33 33 29 42 43 42 69 0 49
-21 86 -53 93 -15 3 -30 10 -33 14 -3 5 -37 9 -75 9 l-70 0 3 -107z"/>
</g>
</svg>
