<?xml version="1.0" standalone="no"?>
<!DOCTYPE svg PUBLIC "-//W3C//DTD SVG 20010904//EN"
 "http://www.w3.org/TR/2001/REC-SVG-20010904/DTD/svg10.dtd">
<svg version="1.0" xmlns="http://www.w3.org/2000/svg"
 width="150.000000pt" height="150.000000pt" viewBox="0 0 150.000000 150.000000"
 preserveAspectRatio="xMidYMid meet">
<metadata>
Created by potrace 1.13, written by Peter Selinger 2001-2015
</metadata>
<g transform="translate(0.000000,150.000000) scale(0.100000,-0.100000)"
fill="#000000" stroke="none">
<path d="M605 1457 c-28 -4 -54 -12 -59 -18 -6 -5 -20 -9 -31 -9 -49 0 -190
-87 -260 -160 -27 -29 -60 -62 -72 -75 -13 -12 -23 -25 -23 -28 0 -3 -13 -26
-30 -50 -16 -25 -30 -51 -30 -59 0 -7 -6 -22 -14 -33 -7 -11 -17 -38 -21 -60
-10 -46 -9 -44 -21 -70 -11 -26 -11 -264 0 -290 5 -11 10 -24 11 -30 9 -66 74
-209 112 -251 13 -14 23 -28 23 -32 0 -10 127 -123 164 -146 57 -36 140 -76
156 -76 9 0 32 -8 51 -17 28 -15 60 -18 189 -17 137 0 161 3 210 23 164 67
251 127 330 227 55 69 110 162 110 186 0 5 6 24 14 41 40 93 64 305 35 322 -6
4 -8 13 -5 20 6 15 -11 88 -30 132 -8 17 -14 36 -14 41 0 33 -157 262 -179
262 -3 0 -28 18 -54 40 -45 36 -98 66 -188 103 -79 32 -256 44 -374 24z m274
-125 c3 -5 26 -12 50 -16 24 -4 56 -13 70 -20 14 -7 49 -23 76 -37 61 -28 195
-135 195 -154 0 -8 9 -19 20 -25 11 -6 20 -17 20 -25 0 -8 4 -15 8 -15 7 0 34
-54 37 -75 0 -5 6 -20 13 -32 7 -12 12 -33 12 -47 0 -14 5 -28 10 -31 6 -3 10
-52 10 -110 0 -58 -4 -107 -10 -110 -5 -3 -10 -17 -10 -30 0 -13 -5 -36 -12
-52 -6 -15 -12 -30 -13 -33 -11 -34 -31 -70 -57 -104 -46 -60 -121 -136 -134
-136 -6 0 -19 -9 -29 -20 -10 -11 -22 -20 -27 -20 -4 0 -37 -14 -71 -30 -35
-17 -70 -30 -78 -30 -8 0 -21 -6 -27 -12 -18 -18 -346 -18 -363 -1 -7 7 -22
13 -33 13 -28 0 -94 24 -108 38 -7 7 -17 12 -22 12 -22 1 -176 118 -176 134 0
3 -22 35 -50 71 -27 36 -50 71 -50 78 0 7 -7 26 -16 42 -8 17 -18 62 -21 100
-3 39 -11 73 -16 77 -7 4 -7 11 0 20 6 7 13 47 17 88 4 41 11 77 16 78 6 2 10
10 10 18 0 58 156 257 228 291 20 9 39 20 42 24 10 14 91 47 142 59 29 6 62
15 73 20 11 5 34 11 50 14 46 7 218 -3 224 -12z"/>
<path d="M675 1290 c-3 -5 -21 -10 -38 -10 -32 0 -95 -14 -132 -29 -60 -25
-117 -56 -131 -72 -10 -11 -22 -19 -29 -19 -22 0 -155 -161 -155 -189 0 -13
-33 -75 -45 -83 -15 -11 -13 -270 3 -275 6 -3 12 -18 12 -33 0 -16 6 -33 13
-37 6 -4 24 -32 39 -61 14 -29 38 -62 52 -73 14 -11 26 -26 26 -32 0 -15 100
-92 131 -102 13 -4 38 -16 55 -26 17 -11 40 -19 50 -19 11 0 33 -8 49 -17 24
-13 58 -17 166 -17 87 -1 141 3 150 10 8 7 30 15 49 19 51 11 152 60 175 85
11 12 27 25 36 29 25 10 125 127 143 168 9 21 22 47 28 57 5 11 13 46 16 78 2
32 9 61 13 64 12 7 12 81 0 88 -4 3 -11 31 -14 63 -3 32 -11 59 -17 61 -5 2
-10 10 -10 17 0 23 -47 109 -85 152 -78 91 -246 181 -356 190 -38 3 -72 10
-75 14 -7 12 -111 11 -119 -1z m178 -284 c76 -35 97 -69 97 -153 0 -79 -12
-101 -70 -134 -46 -26 -50 -42 -15 -65 14 -9 25 -22 25 -29 0 -7 3 -15 8 -17
4 -1 18 -25 31 -53 13 -27 30 -62 37 -76 7 -14 16 -45 20 -68 l7 -42 -42 3
c-33 2 -45 8 -55 28 -7 14 -22 44 -34 67 -12 23 -22 49 -22 57 0 9 -4 16 -10
16 -5 0 -10 5 -10 12 0 25 -53 87 -82 97 -17 6 -51 11 -74 11 l-44 0 0 -146 0
-145 -47 3 -48 3 -3 312 c-3 388 -16 359 160 350 98 -5 128 -10 171 -31z"/>
<path d="M620 851 l0 -111 80 0 c47 0 80 4 80 10 0 6 6 10 13 10 25 0 57 45
57 81 0 83 -34 108 -152 116 l-78 6 0 -112z"/>
</g>
</svg>
